<svg width="64" height="64" viewBox="8 7 50 47" xmlns="http://www.w3.org/2000/svg">
    <path d="M45.87,53.81c3.92-3.34,6.47-8.53,6.63-15.18.18-7.33-5.46-15.44-10.46-22.84-.31-.49-.53-.78-.53-.78,0,0-3.68,6.5-7.65,12.12-3.97,5.62-5.63,15.05,1.37,18.92,0,0-3.78-3.91,1.04-10.78,1.37-1.95,3.49-4.71,5.17-7.38,2.3,3.87,4.03,7.62,3.96,10.56-.19,7.76-4.83,12.67-11.83,12.5-7-.17-11.4-5.29-11.22-13.05.09-3.78,3.2-8.73,6.68-13.56.27-.4.68-.96,1.25-1.71.13-.18.27-.37.41-.55,4.51-6.22,4.57-11.87,4.09-14.99,13.32.49,23.97,11.45,23.97,24.89,0,9.4-5.2,17.57-12.88,21.82M8.93,31.99c0-13.45,10.66-24.41,24-24.89-5,8.97-17.41,20.06-17.66,30.64-.17,7.05,2.41,12.58,6.57,16.09-7.69-4.24-12.91-12.42-12.91-21.83Z" fill="#FF6B35"/>
</svg>